<?xml version="1.0" standalone="no"?>
<!DOCTYPE svg PUBLIC "-//W3C//DTD SVG 1.0//EN" "http://www.w3.org/TR/2001/REC-SVG-20010904/DTD/svg10.dtd">
<svg xmlns="http://www.w3.org/2000/svg" xmlns:xlink="http://www.w3.org/1999/xlink" id="body_1" width="960" height="600">

<g transform="matrix(1 0 0 1 0 0)">
	<g>
	</g>
	<g transform="matrix(1 0 0 1 480 300)">
		<text transform="matrix(0.49999997 -0.86602545 0.86602545 0.49999997 118 -272)" x="-11.72" y="0" style="fill:#1A535C;font-family:Playfair Display;" font-size="10">
word
		</text>
		<text transform="matrix(0.8660254 0.49999994 -0.49999994 0.8660254 -136 33)" x="-9.055" y="0" style="fill:#87FF87;font-family:Playfair Display;" font-size="10">
tree
		</text>
		<text transform="matrix(0.8660254 -0.50000006 0.50000006 0.8660254 306 -229)" x="-13.285" y="0" style="fill:#FFB053;font-family:Playfair Display;" font-size="10">
single
		</text>
		<text transform="matrix(0.50000006 0.8660253 -0.8660253 0.50000006 -427 -23)" x="-11.91" y="0" style="fill:#E55934;font-family:Playfair Display;" font-size="10">
think
		</text>
		<text transform="matrix(0.50000006 0.8660253 -0.8660253 0.50000006 158 115)" x="-10.205" y="0" style="fill:#87FF87;font-family:Playfair Display;" font-size="10">
time
		</text>
		<text transform="matrix(1 0 0 1 39 -242)" x="-12.41" y="0" style="fill:#CF142B;font-family:Playfair Display;" font-size="10">
love
		</text>
		<text transform="matrix(0.49999997 -0.86602545 0.86602545 0.49999997 -110 58)" x="-8.665" y="0" style="fill:#F7C4F7;font-family:Playfair Display;" font-size="10">
text
		</text>
		<text transform="matrix(0.8660254 -0.50000006 0.50000006 0.8660254 -79 131)" x="-18.81" y="0" style="fill:#1A535C;font-family:Playfair Display;" font-size="10">
Memory
		</text>
		<text transform="matrix(0.8660254 0.49999994 -0.49999994 0.8660254 302 46)" x="-11.16" y="0" style="fill:#5BC0EB;font-family:Playfair Display;" font-size="10">
open
		</text>
		<text transform="matrix(0.8660254 -0.50000006 0.50000006 0.8660254 103 102)" x="-157.3" y="0" style="fill:#4ECDC4;font-family:Playfair Display;" font-size="100">
Royal College of Music
		</text>
		<text transform="matrix(0.8660254 -0.50000006 0.50000006 0.8660254 174 129)" x="-105.65" y="0" style="fill:#F7C4F7;font-family:Playfair Display;" font-size="100">
Ilya Kondratiev
		</text>
		<text transform="matrix(0.8660254 -0.50000006 0.50000006 0.8660254 127 -86)" x="-93.798" y="0" style="fill:#FF6B6B;font-family:Playfair Display;" font-size="81">
Music
		</text>
		<text transform="matrix(0.50000006 0.8660253 -0.8660253 0.50000006 -188 79)" x="-152.685" y="0" style="fill:#CE4CA3;font-family:Playfair Display;" font-size="81">
Wang Xiaohan
		</text>
		<text transform="matrix(0.8660254 -0.50000006 0.50000006 0.8660254 183 -175)" x="-119.475" y="0" style="fill:#5BC0EB;font-family:Playfair Display;" font-size="81">
Organ
		</text>
		<text transform="matrix(0.8660254 -0.50000006 0.50000006 0.8660254 229 -38)" x="-64.05" y="0" style="fill:#2866A2;font-family:Playfair Display;" font-size="100">
Piano
		</text>
		<text transform="matrix(0.8660254 -0.50000006 0.50000006 0.8660254 -280 -70)" x="-94.5675" y="0" style="fill:#87FF87;font-family:Playfair Display;" font-size="81">
CCOM
		</text>
		<text transform="matrix(0.50000006 0.8660253 -0.8660253 0.50000006 -191 -147)" x="-104.409" y="0" style="fill:#E55934;font-family:Playfair Display;" font-size="81">
Chen Sa
		</text>
		<text transform="matrix(0.8660254 0.49999994 -0.49999994 0.8660254 -298 71)" x="-119.625" y="0" style="fill:#FFB053;font-family:Playfair Display;" font-size="55">
bachelor
		</text>
		<text transform="matrix(0.50000006 0.8660253 -0.8660253 0.50000006 -47 -64)" x="-139.095" y="0" style="fill:#1A535C;font-family:Playfair Display;" font-size="55">
Shen Fanxiu
		</text>
		<text transform="matrix(0.8660254 -0.50000006 0.50000006 0.8660254 -318 -128)" x="-96.525" y="0" style="fill:#FFDE00;font-family:Playfair Display;" font-size="55">
China
		</text>
		<text transform="matrix(0.8660254 0.49999994 -0.49999994 0.8660254 -58 57)" x="-69.245" y="0" style="fill:#5BC0EB;font-family:Playfair Display;" font-size="55">
Beijing
		</text>
		<text transform="matrix(1 0 -0 1 116 6)" x="-38.9675" y="0" style="fill:#2866A2;font-family:Playfair Display;" font-size="55">
London
		</text>
		<text transform="matrix(1 0 -0 1 35 -187)" x="-42.735" y="0" style="fill:#1A535C;font-family:Playfair Display;" font-size="55">
RCM
		</text>
		<text transform="matrix(0.50000006 0.8660253 -0.8660253 0.50000006 354 -190)" x="-74.8825" y="0" style="fill:#00247D;font-family:Playfair Display;" font-size="55">
UK
		</text>
		<text transform="matrix(1 0 -0 1 -217 192)" x="-52.14" y="0" style="fill:#E55934;font-family:Playfair Display;" font-size="55">
Middle School affiliated to The China Central Conservatory of Music
		</text>
		<text transform="matrix(0.8660254 0.49999994 -0.49999994 0.8660254 111 -44)" x="-22.955" y="0" style="fill:#E55934;font-family:Playfair Display;" font-size="10">
Computer
		</text>
		<text transform="matrix(0.50000006 0.8660253 -0.8660253 0.50000006 173 -48)" x="-18.75" y="0" style="fill:#5BC0EB;font-family:Playfair Display;" font-size="10">
learning
		</text>
		<text transform="matrix(0.50000006 0.8660253 -0.8660253 0.50000006 220 -177)" x="-11.8" y="0" style="fill:#4ECDC4;font-family:Playfair Display;" font-size="10">
thing
		</text>
		<text transform="matrix(0.50000006 0.8660253 -0.8660253 0.50000006 213 6)" x="-11.84" y="0" style="fill:#4ECDC4;font-family:Playfair Display;" font-size="10">
write
		</text>
		<text transform="matrix(0.8660254 0.49999994 -0.49999994 0.8660254 -186 -23)" x="-9.775" y="0" style="fill:#5BC0EB;font-family:Playfair Display;" font-size="10">
easy
		</text>
		<text transform="matrix(0.49999997 -0.86602545 0.86602545 0.49999997 112 252)" x="-12.785" y="0" style="fill:#1A535C;font-family:Playfair Display;" font-size="10">
touch
		</text>
		<text transform="matrix(1 0 0 1 -339 -174)" x="-19.085" y="0" style="fill:#2866A2;font-family:Playfair Display;" font-size="10">
problem
		</text>
		<text transform="matrix(0.50000006 0.8660253 -0.8660253 0.50000006 -433 140)" x="-19.25" y="0" style="fill:#87FF87;font-family:Playfair Display;" font-size="10">
teaching
		</text>
		<text transform="matrix(1 0 -0 1 -43 259)" x="-17.07" y="0" style="fill:#E55934;font-family:Playfair Display;" font-size="10">
current
		</text>
		<text transform="matrix(0.50000006 0.8660253 -0.8660253 0.50000006 -258 -101)" x="-7.55" y="0" style="fill:#E55934;font-family:Playfair Display;" font-size="10">
fun
		</text>
		<text transform="matrix(0.49999997 -0.86602545 0.86602545 0.49999997 -161 253)" x="-13.055" y="0" style="fill:#FFB053;font-family:Playfair Display;" font-size="10">
funny
		</text>
		<text transform="matrix(0.49999997 -0.86602545 0.86602545 0.49999997 229 244)" x="-20.11" y="0" style="fill:#FF6B6B;font-family:Playfair Display;" font-size="10">
language
		</text>
		<text transform="matrix(0.8660254 0.49999994 -0.49999994 0.8660254 -6 -286)" x="-12.79" y="0" style="fill:#4ECDC4;font-family:Playfair Display;" font-size="10">
social
		</text>
		<text transform="matrix(1 0 0 1 -289 -31)" x="-13.83" y="0" style="fill:#F7C4F7;font-family:Playfair Display;" font-size="10">
media
		</text>
		<text transform="matrix(0.50000006 0.8660253 -0.8660253 0.50000006 54 167)" x="-11.885" y="0" style="fill:#FF6B6B;font-family:Playfair Display;" font-size="10">
posts
		</text>
		<text transform="matrix(0.8660254 -0.50000006 0.50000006 0.8660254 150 -219)" x="-9.805" y="0" style="fill:#5BC0EB;font-family:Playfair Display;" font-size="10">
help
		</text>
		<text transform="matrix(1 0 -0 1 -115 268)" x="-15.5" y="0" style="fill:#2866A2;font-family:Playfair Display;" font-size="10">
insight
		</text>
	</g>
</g>
</svg>
